<svg width="63" height="63" viewBox="0 0 63 63" fill="none" xmlns="http://www.w3.org/2000/svg">
<mask id="mask0" mask-type="alpha" maskUnits="userSpaceOnUse" x="0" y="0" width="63" height="63">
<g clip-path="url(#clip0)">
<path d="M38.5009 31.5C38.5009 35.3666 35.3666 38.5009 31.5 38.5009C27.6334 38.5009 24.4991 35.3692 24.4991 31.5C24.4991 27.6334 27.6334 24.4991 31.5 24.4991C35.3666 24.4991 38.5009 27.6334 38.5009 31.5ZM48.5966 23.016C48.6964 25.2289 48.7174 25.893 48.7174 31.5C48.7174 37.107 48.6964 37.7711 48.5966 39.9866C48.3341 45.6304 45.6855 48.3367 39.9893 48.594C37.7738 48.6937 37.1096 48.7174 31.5 48.7174C25.893 48.7174 25.2262 48.6964 23.016 48.5966C17.3092 48.3368 14.6659 45.6251 14.4086 39.9893C14.3062 37.7711 14.2826 37.107 14.2826 31.5C14.2826 25.893 14.3062 25.2289 14.406 23.016C14.6659 17.367 17.3171 14.6659 23.0134 14.4086C25.2289 14.3062 25.893 14.2852 31.5 14.2852C37.107 14.2852 37.7737 14.3062 39.9866 14.406C45.6776 14.6659 48.3341 17.367 48.5966 23.016ZM42.2835 31.5C42.2835 25.5439 37.4535 20.7165 31.5 20.7165C25.5439 20.7165 20.7165 25.5439 20.7165 31.5C20.7165 37.4561 25.5465 42.2835 31.5 42.2835C37.4561 42.2835 42.2835 37.4561 42.2835 31.5ZM45.2287 20.2913C45.2287 18.9 44.1 17.7712 42.7088 17.7712C41.3175 17.7712 40.1888 18.9 40.1888 20.2913C40.1888 21.6825 41.3175 22.8112 42.7088 22.8112C44.1026 22.8112 45.2287 21.6825 45.2287 20.2913V20.2913ZM63 0V63H0V0H63ZM52.5 31.5C52.5 25.7985 52.4764 25.0819 52.374 22.8427C52.0301 15.225 47.7934 10.9777 40.1599 10.6286C37.9181 10.5236 37.2041 10.5 31.5 10.5C25.7959 10.5 25.0845 10.5236 22.8427 10.626C15.2145 10.9751 10.9777 15.2066 10.626 22.8401C10.5236 25.0819 10.5 25.7985 10.5 31.5C10.5 37.2041 10.5236 37.9181 10.626 40.1573C10.9777 47.7855 15.2092 52.0249 22.8427 52.374C25.0845 52.4764 25.7959 52.5 31.5 52.5C37.2041 52.5 37.9181 52.4764 40.1599 52.374C47.7776 52.0249 52.0301 47.7934 52.374 40.1573C52.4764 37.9181 52.5 37.2041 52.5 31.5V31.5Z" fill="black"/>
</g>
</mask>
<g mask="url(#mask0)">
<rect x="-19" y="-31" width="117" height="125" fill="url(#paint0_linear)"/>
</g>
<defs>
<linearGradient id="paint0_linear" x1="39.5" y1="-31" x2="39.5" y2="94" gradientUnits="userSpaceOnUse">
<stop stop-color="#041655" stop-opacity="0.88"/>
<stop offset="1" stop-color="#505156" stop-opacity="0.76"/>
</linearGradient>
<clipPath id="clip0">
<rect width="63" height="63" fill="white"/>
</clipPath>
</defs>
</svg>
