<svg width="46" height="45" viewBox="0 0 46 45" fill="none" xmlns="http://www.w3.org/2000/svg">
<g clip-path="url(#clip0)">
<path d="M19.1667 36.5625C19.1667 38.1169 17.8787 39.375 16.2917 39.375C14.7047 39.375 13.4167 38.1169 13.4167 36.5625C13.4167 35.01 14.7047 33.75 16.2917 33.75C17.8787 33.75 19.1667 35.01 19.1667 36.5625ZM25.875 33.75C24.288 33.75 23 35.0081 23 36.5625C23 38.1169 24.288 39.375 25.875 39.375C27.462 39.375 28.75 38.1169 28.75 36.5625C28.75 35.01 27.462 33.75 25.875 33.75ZM5.62925 24.375L0 11.25H32.223L28.4338 24.375H5.62925ZM27.1592 15H5.76533L8.17842 20.625H25.5357L27.1592 15ZM37.9596 5.625L31.3816 28.125H7.23733L8.84542 31.875H34.2202L40.8787 9.375H44.5759L46 5.625H37.9596Z" fill="url(#paint0_linear)"/>
</g>
<defs>
<linearGradient id="paint0_linear" x1="23" y1="5.625" x2="23" y2="39.375" gradientUnits="userSpaceOnUse">
<stop stop-color="#505156"/>
<stop offset="1" stop-color="#041655"/>
</linearGradient>
<clipPath id="clip0">
<rect width="46" height="45" fill="white"/>
</clipPath>
</defs>
</svg>
