<svg width="63" height="63" viewBox="0 0 63 63" fill="none" xmlns="http://www.w3.org/2000/svg">
<mask id="mask0" mask-type="alpha" maskUnits="userSpaceOnUse" x="0" y="0" width="63" height="63">
<path d="M0 0V63H63V0H0ZM49.5127 24.2471C50.0587 36.3668 41.0209 49.8803 25.0215 49.8803C20.1547 49.8803 15.6266 48.4549 11.8125 46.0084C16.3852 46.5465 20.9475 45.2786 24.57 42.441C20.7979 42.3701 17.6164 39.879 16.5218 36.456C17.8736 36.7132 19.2019 36.6371 20.412 36.309C16.2671 35.4769 13.4085 31.7441 13.5004 27.7515C14.6606 28.3972 15.9915 28.7857 17.4011 28.8304C13.566 26.2657 12.4792 21.1995 14.7341 17.325C18.984 22.5382 25.3339 25.9691 32.4949 26.3287C31.2375 20.9396 35.3272 15.75 40.8896 15.75C43.3676 15.75 45.6067 16.7948 47.1791 18.4721C49.1426 18.0863 50.988 17.3696 52.6523 16.3826C52.0091 18.396 50.6415 20.0839 48.8644 21.1496C50.6074 20.9396 52.269 20.4776 53.8125 19.7925C52.6575 21.5145 51.1954 23.0318 49.5127 24.2471V24.2471Z" fill="black"/>
</mask>
<g mask="url(#mask0)">
<rect x="-20" y="-31" width="117" height="125" fill="url(#paint0_linear)"/>
</g>
<defs>
<linearGradient id="paint0_linear" x1="38.5" y1="-31" x2="38.5" y2="94" gradientUnits="userSpaceOnUse">
<stop stop-color="#505156" stop-opacity="0.81"/>
<stop offset="1" stop-color="#041655" stop-opacity="0.92"/>
</linearGradient>
</defs>
</svg>
