<svg width="278" height="41" viewBox="0 0 278 41" fill="none" xmlns="http://www.w3.org/2000/svg">
<path d="M0.221278 20.456C0.221278 16.648 1.07994 13.232 2.79728 10.208C4.51461 7.14667 6.84795 4.75733 9.79728 3.04C12.7839 1.32267 16.0879 0.463998 19.7093 0.463998C23.9653 0.463998 27.6799 1.49067 30.8533 3.544C34.0266 5.59733 36.3413 8.50933 37.7973 12.28H31.6933C30.6106 9.928 29.0426 8.11733 26.9893 6.848C24.9733 5.57866 22.5466 4.944 19.7093 4.944C16.9839 4.944 14.5386 5.57866 12.3733 6.848C10.2079 8.11733 8.50928 9.928 7.27728 12.28C6.04528 14.5947 5.42928 17.32 5.42928 20.456C5.42928 23.5547 6.04528 26.28 7.27728 28.632C8.50928 30.9467 10.2079 32.7387 12.3733 34.008C14.5386 35.2773 16.9839 35.912 19.7093 35.912C22.5466 35.912 24.9733 35.296 26.9893 34.064C29.0426 32.7947 30.6106 30.984 31.6933 28.632H37.7973C36.3413 32.3653 34.0266 35.2587 30.8533 37.312C27.6799 39.328 23.9653 40.336 19.7093 40.336C16.0879 40.336 12.7839 39.496 9.79728 37.816C6.84795 36.0987 4.51461 33.728 2.79728 30.704C1.07994 27.68 0.221278 24.264 0.221278 20.456ZM49.0791 24.544C49.0791 21.408 49.7138 18.664 50.9831 16.312C52.2524 13.9227 53.9884 12.0747 56.1911 10.768C58.4311 9.46133 60.9138 8.808 63.6391 8.808C66.3271 8.808 68.6604 9.38666 70.6391 10.544C72.6178 11.7013 74.0924 13.1573 75.0631 14.912V9.312H80.2151V40H75.0631V34.288C74.0551 36.08 72.5431 37.5733 70.5271 38.768C68.5484 39.9253 66.2338 40.504 63.5831 40.504C60.8578 40.504 58.3938 39.832 56.1911 38.488C53.9884 37.144 52.2524 35.2587 50.9831 32.832C49.7138 30.4053 49.0791 27.6427 49.0791 24.544ZM75.0631 24.6C75.0631 22.2853 74.5964 20.2693 73.6631 18.552C72.7298 16.8347 71.4604 15.528 69.8551 14.632C68.2871 13.6987 66.5511 13.232 64.6471 13.232C62.7431 13.232 61.0071 13.68 59.4391 14.576C57.8711 15.472 56.6204 16.7787 55.6871 18.496C54.7538 20.2133 54.2871 22.2293 54.2871 24.544C54.2871 26.896 54.7538 28.9493 55.6871 30.704C56.6204 32.4213 57.8711 33.7467 59.4391 34.68C61.0071 35.576 62.7431 36.024 64.6471 36.024C66.5511 36.024 68.2871 35.576 69.8551 34.68C71.4604 33.7467 72.7298 32.4213 73.6631 30.704C74.5964 28.9493 75.0631 26.9147 75.0631 24.6ZM100.643 13.512V31.6C100.643 33.0933 100.96 34.1573 101.595 34.792C102.23 35.3893 103.331 35.688 104.899 35.688H108.651V40H104.059C101.222 40 99.0935 39.3467 97.6748 38.04C96.2562 36.7333 95.5468 34.5867 95.5468 31.6V13.512H91.5708V9.312H95.5468V1.584H100.643V9.312H108.651V13.512H100.643ZM117.961 20.288C117.961 16.4053 118.801 12.952 120.481 9.928C122.161 6.86667 124.495 4.496 127.481 2.816C130.505 1.09866 133.921 0.239998 137.729 0.239998C142.396 0.239998 146.391 1.472 149.713 3.936C153.036 6.4 155.257 9.76 156.377 14.016H145.849C145.065 12.3733 143.945 11.1227 142.489 10.264C141.071 9.40533 139.447 8.976 137.617 8.976C134.668 8.976 132.279 10.0027 130.449 12.056C128.62 14.1093 127.705 16.8533 127.705 20.288C127.705 23.7227 128.62 26.4667 130.449 28.52C132.279 30.5733 134.668 31.6 137.617 31.6C139.447 31.6 141.071 31.1707 142.489 30.312C143.945 29.4533 145.065 28.2027 145.849 26.56H156.377C155.257 30.816 153.036 34.176 149.713 36.64C146.391 39.0667 142.396 40.28 137.729 40.28C133.921 40.28 130.505 39.44 127.481 37.76C124.495 36.0427 122.161 33.672 120.481 30.648C118.801 27.624 117.961 24.1707 117.961 20.288ZM182.066 40.448C179.004 40.448 176.242 39.7947 173.778 38.488C171.351 37.1813 169.428 35.3147 168.01 32.888C166.628 30.4613 165.938 27.624 165.938 24.376C165.938 21.1653 166.647 18.3467 168.066 15.92C169.484 13.456 171.426 11.5707 173.89 10.264C176.354 8.95733 179.116 8.304 182.178 8.304C185.239 8.304 188.002 8.95733 190.466 10.264C192.93 11.5707 194.871 13.456 196.29 15.92C197.708 18.3467 198.418 21.1653 198.418 24.376C198.418 27.5867 197.69 30.424 196.234 32.888C194.815 35.3147 192.855 37.1813 190.354 38.488C187.89 39.7947 185.127 40.448 182.066 40.448ZM182.066 32.16C183.895 32.16 185.444 31.488 186.714 30.144C188.02 28.8 188.674 26.8773 188.674 24.376C188.674 21.8747 188.039 19.952 186.77 18.608C185.538 17.264 184.007 16.592 182.178 16.592C180.311 16.592 178.762 17.264 177.53 18.608C176.298 19.9147 175.682 21.8373 175.682 24.376C175.682 26.8773 176.279 28.8 177.474 30.144C178.706 31.488 180.236 32.16 182.066 32.16ZM228.138 8.416C231.796 8.416 234.708 9.61067 236.874 12C239.076 14.352 240.178 17.6 240.178 21.744V40H230.658V23.032C230.658 20.9413 230.116 19.3173 229.034 18.16C227.951 17.0027 226.495 16.424 224.666 16.424C222.836 16.424 221.38 17.0027 220.298 18.16C219.215 19.3173 218.674 20.9413 218.674 23.032V40H209.098V8.752H218.674V12.896C219.644 11.5147 220.951 10.432 222.594 9.648C224.236 8.82667 226.084 8.416 228.138 8.416ZM265.144 40.448C262.419 40.448 259.992 39.9813 257.864 39.048C255.736 38.1147 254.056 36.8453 252.824 35.24C251.592 33.5973 250.901 31.768 250.752 29.752H260.216C260.328 30.8347 260.832 31.712 261.728 32.384C262.624 33.056 263.725 33.392 265.032 33.392C266.227 33.392 267.141 33.168 267.776 32.72C268.448 32.2347 268.784 31.6187 268.784 30.872C268.784 29.976 268.317 29.3227 267.384 28.912C266.451 28.464 264.939 27.9787 262.848 27.456C260.608 26.9333 258.741 26.392 257.248 25.832C255.755 25.2347 254.467 24.32 253.384 23.088C252.301 21.8187 251.76 20.12 251.76 17.992C251.76 16.2 252.245 14.576 253.216 13.12C254.224 11.6267 255.68 10.4507 257.584 9.592C259.525 8.73333 261.821 8.304 264.472 8.304C268.392 8.304 271.472 9.27467 273.712 11.216C275.989 13.1573 277.296 15.7333 277.632 18.944H268.784C268.635 17.8613 268.149 17.0027 267.328 16.368C266.544 15.7333 265.499 15.416 264.192 15.416C263.072 15.416 262.213 15.64 261.616 16.088C261.019 16.4987 260.72 17.0773 260.72 17.824C260.72 18.72 261.187 19.392 262.12 19.84C263.091 20.288 264.584 20.736 266.6 21.184C268.915 21.7813 270.8 22.3787 272.256 22.976C273.712 23.536 274.981 24.4693 276.064 25.776C277.184 27.0453 277.763 28.7627 277.8 30.928C277.8 32.7573 277.277 34.4 276.232 35.856C275.224 37.2747 273.749 38.3947 271.808 39.216C269.904 40.0373 267.683 40.448 265.144 40.448Z" fill="#2C2C2C"/>
</svg>
