<svg width="777" height="1080" viewBox="0 0 777 1080" fill="none" xmlns="http://www.w3.org/2000/svg">
<path d="M13.8864 184.903C51.0666 106.28 162.933 106.28 200.114 184.903L327.588 454.467C359.901 522.797 310.059 601.5 234.475 601.5H-20.4746C-96.0593 601.5 -145.901 522.797 -113.588 454.467L13.8864 184.903Z" fill="#F5F6F8" fill-opacity="0.47"/>
<path d="M348.886 794.097C386.067 872.72 497.933 872.72 535.114 794.097L662.588 524.533C694.901 456.203 645.059 377.5 569.475 377.5H314.525C238.941 377.5 189.099 456.203 221.412 524.533L348.886 794.097Z" fill="#F5F6F8" fill-opacity="0.47"/>
<path d="M285.114 551.903C247.933 473.28 136.067 473.28 98.8864 551.903L-28.5881 821.467C-60.9006 889.797 -11.0594 968.5 64.5254 968.5H319.475C395.059 968.5 444.901 889.797 412.588 821.467L285.114 551.903Z" fill="#F5F6F8" fill-opacity="0.47"/>
<path d="M535.114 778.903C497.933 700.28 386.067 700.28 348.886 778.903L221.412 1048.47C189.099 1116.8 238.941 1195.5 314.525 1195.5H569.475C645.059 1195.5 694.901 1116.8 662.588 1048.47L535.114 778.903Z" fill="#F5F6F8" fill-opacity="0.47"/>
<path d="M200.114 1227.1C162.933 1305.72 51.0667 1305.72 13.8864 1227.1L-113.588 957.533C-145.901 889.203 -96.0594 810.5 -20.4746 810.5H234.475C310.059 810.5 359.901 889.203 327.588 957.533L200.114 1227.1Z" fill="#F5F6F8" fill-opacity="0.47"/>
<path d="M424.114 370.097C386.933 448.72 275.067 448.72 237.886 370.097L110.412 100.533C78.0994 32.2029 127.941 -46.5 203.525 -46.5H458.475C534.059 -46.5 583.901 32.2028 551.588 100.533L424.114 370.097Z" fill="#F5F6F8" fill-opacity="0.47"/>
</svg>
